Coordinates
version=1
nRows=9
nColumns=24
inDegrees=yes

Units are S.I. units (second, meters, Newtons, ...)
Angles are in degrees.

endheader
time	pelvis_tilt	pelvis_list	pelvis_rotation	pelvis_tx	pelvis_ty	pelvis_tz	hip_flexion_r	hip_adduction_r	hip_rotation_r	knee_angle_r	ankle_angle_r	subtalar_angle_r	mtp_angle_r	hip_flexion_l	hip_adduction_l	hip_rotation_l	knee_angle_l	ankle_angle_l	subtalar_angle_l	mtp_angle_l	lumbar_extension	lumbar_bending	lumbar_rotation
      3.86500000	     -7.80804814	     -1.47060465	     -7.78590928	     -1.16593204	     -0.03856050	     -0.31540854	     -7.33094386	      2.67342553	      6.49325209	    -21.91682462	      4.15530557	     11.21738900	     19.68448591	     34.69973516	     -5.42915199	     -1.56386735	    -13.40679067	     -0.49290342	     11.61478784	     13.01111332	      8.07573609	      0.00552271	      3.36375588
      3.87000000	     -7.88572249	     -1.27934466	     -7.78466851	     -1.15839590	     -0.03973448	     -0.31600682	     -7.22201393	      2.28133903	      6.08939142	    -22.71608836	      3.42454647	     11.90709869	     21.33475874	     34.96383194	     -5.15882893	     -1.45483815	    -14.36762712	     -1.72066001	     10.80083756	     13.97392536	      8.23657592	     -0.32203994	      3.20532333
      3.87500000	     -8.01207750	     -1.04105098	     -7.89195454	     -1.15090685	     -0.04087209	     -0.31644253	     -6.97396499	      1.84327195	      5.81185020	    -23.71245180	      2.93121322	     12.82602795	     21.97646001	     35.32325044	     -4.93972691	     -1.66414049	    -15.51619430	     -2.60527951	     10.42136791	     14.09007969	      8.45055858	     -0.68148535	      3.19576454
      3.88000000	     -8.16670550	     -0.76642860	     -7.90525402	     -1.14336903	     -0.04194389	     -0.31700452	     -6.67603845	      1.35259266	      5.33484059	    -24.69709186	      2.24351896	     13.76156182	     22.89458319	     35.72608625	     -4.61881999	     -1.71617157	    -16.66593663	     -3.65890434	      9.78083706	     14.22152927	      8.70359965	     -1.08870496	      3.11531943
      3.88500000	     -8.22969015	     -0.53480729	     -7.79566339	     -1.13584248	     -0.04280938	     -0.31772056	     -6.52086896	      0.88995787	      4.73918819	    -25.50818856	      1.06872721	     14.42299156	     24.80124261	     36.03642561	     -4.22530305	     -1.49293933	    -17.79259428	     -4.91061030	      8.75568233	     14.53607859	      8.83752937	     -1.48414658	      2.97037426
      3.89000000	     -8.36020095	     -0.27337045	     -7.76419374	     -1.12846391	     -0.04369292	     -0.31834792	     -6.17584519	      0.38311704	      4.17115383	    -26.55123201	      0.11997132	     15.41446895	     25.98275170	     36.45627455	     -3.87351613	     -1.44693967	    -19.04118364	     -5.87071993	      8.07471083	     14.34255891	      9.01780062	     -1.89071256	      2.88119042
      3.89500000	     -8.46779149	      0.02827624	     -7.67324954	     -1.12090801	     -0.04439747	     -0.31903301	     -5.87300640	     -0.18402439	      3.52291437	    -27.51370839	     -1.14926845	     16.29236892	     27.46073674	     36.81211648	     -3.42309935	     -1.28260803	    -20.24322870	     -6.79104195	      7.27549716	     13.96775264	      9.21300393	     -2.35063627	      2.78239827
      3.90000000	     -8.61747863	      0.34792224	     -7.60774515	     -1.11334488	     -0.04510201	     -0.31967685	     -5.46671391	     -0.78170916	      2.90859329	    -28.60595573	     -2.30470656	     17.42134484	     28.32332804	     37.21701503	     -2.99190744	     -1.26329045	    -21.47486873	     -7.52612475	      6.70154165	     13.56919707	      9.45748926	     -2.81779495	      2.67869452
      3.90500000	     -8.61943228	      0.60147162	     -7.46666568	     -1.10594902	     -0.04554227	     -0.32048143	     -5.22869367	     -1.33393270	      2.23347814	    -29.56665184	     -3.97768341	     18.15466932	     30.25919900	     37.42971309	     -2.48959049	     -0.84761123	    -22.65473596	     -8.24043131	      5.75222381	     12.76300199	      9.48318954	     -3.23596662	      2.55863366
